<?xml version="1.0" encoding="UTF-8" standalone="no"?>
<svg
   id="Logo_CORPVS"
   data-name="Logo CORPVS"
   width="60"
   height="54"
   viewBox="0 0 60 54"
   version="1.1"
   sodipodi:docname="corpvs.svg"
   inkscape:version="1.2.2 (732a01da63, 2022-12-09)"
   xmlns:inkscape="http://www.inkscape.org/namespaces/inkscape"
   xmlns:sodipodi="http://sodipodi.sourceforge.net/DTD/sodipodi-0.dtd"
   xmlns="http://www.w3.org/2000/svg"
   xmlns:svg="http://www.w3.org/2000/svg">
  <defs
     id="defs45" />
  <sodipodi:namedview
     id="namedview43"
     pagecolor="#ffffff"
     bordercolor="#000000"
     borderopacity="0.25"
     inkscape:showpageshadow="2"
     inkscape:pageopacity="0.0"
     inkscape:pagecheckerboard="0"
     inkscape:deskcolor="#d1d1d1"
     showgrid="false"
     inkscape:zoom="1.7719523"
     inkscape:cx="4.7969687"
     inkscape:cy="118.79552"
     inkscape:window-width="1350"
     inkscape:window-height="728"
     inkscape:window-x="0"
     inkscape:window-y="0"
     inkscape:window-maximized="0"
     inkscape:current-layer="Logo_CORPVS" />
  <g
     id="Grupo_21"
     data-name="Grupo 21"
     transform="translate(3.0822537,2.2641106)">
    <g
       id="Grupo_20"
       data-name="Grupo 20"
       transform="translate(0.714,45.371)"
       style="fill:#ffffff">
      <path
         id="Caminho_152"
         data-name="Caminho 152"
         d="m 144.876,309.8 a 1.68,1.68 0 0 1 -1.072,-0.321 1.148,1.148 0 0 1 -0.367,-0.475 1.407,1.407 0 0 1 -0.11,-0.568 1.338,1.338 0 0 1 0.259,-0.825 1.408,1.408 0 0 1 0.746,-0.509 1.933,1.933 0 0 1 0.544,-0.07 2.249,2.249 0 0 1 0.607,0.082 1.284,1.284 0 0 1 0.7,0.469 1.26,1.26 0 0 1 0.247,0.771 1.437,1.437 0 0 1 -0.244,0.815 1.307,1.307 0 0 1 -0.7,0.53 l -0.108,0.032 0.236,0.168 0.267,0.184 q 0.181,0.126 0.3,0.192 l 0.161,0.091 -0.2,0.089 -0.167,0.088 -0.151,-0.139 q -0.09,-0.082 -0.287,-0.237 -0.222,-0.175 -0.332,-0.253 L 145.03,309.8 Z m -0.033,-0.171 a 1.09,1.09 0 0 0 0.877,-0.383 1.319,1.319 0 0 0 0.285,-0.882 1.192,1.192 0 0 0 -0.277,-0.822 1.073,1.073 0 0 0 -0.838,-0.338 1.39,1.39 0 0 0 -0.367,0.046 0.968,0.968 0 0 0 -0.607,0.478 1.745,1.745 0 0 0 -0.112,1.156 0.994,0.994 0 0 0 0.2,0.36 1.029,1.029 0 0 0 0.839,0.381 z"
         transform="translate(-143.327,-306.24)"
         fill="#1d1d1b"
         style="fill:#ffffff" />
      <path
         id="Caminho_153"
         data-name="Caminho 153"
         d="m 161.807,307.255 0.2,-0.01 -0.014,0.137 -0.01,0.175 -0.008,0.331 v 0.993 q 0.034,0.886 0.874,0.881 a 0.76,0.76 0 0 0 0.834,-0.53 2.984,2.984 0 0 0 0.074,-0.733 v -0.6 l -0.012,-0.354 -0.01,-0.169 -0.008,-0.135 0.151,0.01 0.141,-0.01 -0.008,0.139 -0.008,0.177 -0.008,0.351 -0.008,0.593 -0.006,0.355 a 1,1 0 0 1 -0.785,1.057 1.87,1.87 0 0 1 -0.44,0.051 1.705,1.705 0 0 1 -0.412,-0.045 1,1 0 0 1 -0.41,-0.194 0.77,0.77 0 0 1 -0.259,-0.352 1.44,1.44 0 0 1 -0.065,-0.47 l 0.012,-0.4 -0.008,-0.623 v -0.331 l -0.006,-0.171 -0.016,-0.133 z"
         transform="translate(-157.767,-306.411)"
         fill="#1d1d1b"
         style="fill:#ffffff" />
      <path
         id="Caminho_154"
         data-name="Caminho 154"
         d="m 177.592,309.584 0.008,-0.3 0.006,-0.317 v -0.648 -0.388 -0.408 q 0,-0.167 -0.012,-0.258 l -0.016,-0.116 0.147,0.019 c 0.09,0.008 0.235,0.012 0.436,0.011 h 0.44 q 0.11,0 0.485,-0.03 l -0.01,0.123 0.01,0.131 -0.165,-0.014 -0.326,-0.013 h -0.283 -0.241 -0.079 q -0.016,0.35 -0.018,0.525 v 0.444 h 0.287 0.275 c 0.121,0 0.219,-0.005 0.3,-0.013 l 0.143,-0.013 -0.01,0.127 0.01,0.127 -0.1,-0.009 -0.234,-0.01 -0.342,-0.008 h -0.324 l -0.01,0.541 0.01,0.554 h 0.086 0.3 l 0.326,-0.01 0.261,-0.013 0.137,-0.008 -0.01,0.145 0.01,0.11 -0.067,-0.006 q -0.306,-0.024 -0.828,-0.024 H 178 q -0.143,0.006 -0.424,0.031 z"
         transform="translate(-170.412,-306.334)"
         fill="#1d1d1b"
         style="fill:#ffffff" />
      <path
         id="Caminho_155"
         data-name="Caminho 155"
         d="m 187.8,309.774 0.043,-0.239 0.094,-0.591 0.124,-0.891 0.053,-0.376 0.057,-0.386 h 0.077 l 0.206,0.373 0.342,0.617 q 0.214,0.388 0.367,0.637 l 0.3,0.483 0.269,-0.466 0.387,-0.661 0.371,-0.638 0.2,-0.344 h 0.077 l 0.037,0.34 0.043,0.357 0.116,0.952 0.082,0.6 0.037,0.259 0.033,0.164 -0.2,-0.01 -0.212,0.01 -0.023,-0.16 -0.024,-0.249 -0.059,-0.593 -0.077,-0.7 -0.032,-0.255 -0.157,0.272 -0.389,0.681 -0.4,0.735 -0.138,0.26 h -0.077 l -0.128,-0.255 -0.422,-0.764 -0.351,-0.633 -0.151,-0.264 -0.035,0.251 -0.086,0.661 -0.059,0.589 -0.018,0.253 v 0.171 l -0.153,-0.01 -0.165,0.01 z"
         transform="translate(-178.464,-306.448)"
         fill="#1d1d1b"
         style="fill:#ffffff" />
      <path
         id="Caminho_156"
         data-name="Caminho 156"
         d="m 212.245,307.28 -0.01,-0.133 0.194,0.006 0.418,0.015 0.473,0.01 q 0.336,0 0.508,-0.007 l 0.343,-0.016 0.2,-0.007 -0.01,0.131 0.01,0.124 -0.094,-0.01 q -0.122,-0.011 -0.318,-0.017 h -0.363 -0.079 v 0.078 q -0.01,0.171 -0.008,0.511 v 1.047 l 0.006,0.369 0.006,0.171 0.01,0.163 0.01,0.133 -0.189,-0.01 -0.233,0.01 0.012,-0.126 0.01,-0.167 0.006,-0.177 v -0.365 -0.378 -0.68 q 0,-0.295 -0.014,-0.486 l -0.006,-0.1 h -0.083 l -0.334,0.008 -0.332,0.013 -0.145,0.01 z"
         transform="translate(-197.821,-306.334)"
         fill="#1d1d1b"
         style="fill:#ffffff" />
      <path
         id="Caminho_157"
         data-name="Caminho 157"
         d="m 225.1,309.584 0.008,-0.3 0.006,-0.317 v -0.648 -0.388 -0.408 c 0,-0.112 -0.005,-0.2 -0.012,-0.258 l -0.016,-0.116 0.147,0.019 c 0.09,0.008 0.235,0.012 0.436,0.011 h 0.44 q 0.11,0 0.485,-0.03 l -0.01,0.123 0.01,0.131 -0.165,-0.014 -0.326,-0.013 h -0.283 -0.241 -0.08 q -0.016,0.35 -0.018,0.525 v 0.444 h 0.287 0.275 c 0.121,0 0.219,-0.005 0.3,-0.013 l 0.143,-0.013 -0.01,0.127 0.01,0.127 -0.1,-0.009 -0.234,-0.01 -0.342,-0.008 h -0.324 l -0.01,0.541 0.01,0.554 h 0.086 0.3 l 0.326,-0.01 0.261,-0.013 0.137,-0.008 -0.01,0.145 0.01,0.11 -0.067,-0.006 q -0.306,-0.024 -0.828,-0.024 h -0.193 q -0.143,0.006 -0.424,0.031 z"
         transform="translate(-207.984,-306.334)"
         fill="#1d1d1b"
         style="fill:#ffffff" />
      <path
         id="Caminho_158"
         data-name="Caminho 158"
         d="m 235.312,309.774 0.043,-0.239 0.094,-0.591 0.124,-0.891 0.053,-0.376 0.057,-0.386 h 0.078 l 0.206,0.373 0.342,0.617 q 0.214,0.388 0.367,0.637 l 0.3,0.483 0.269,-0.466 0.387,-0.661 0.371,-0.638 0.2,-0.344 h 0.077 l 0.037,0.34 0.043,0.357 0.116,0.952 0.082,0.6 0.037,0.259 0.033,0.164 -0.2,-0.01 -0.212,0.01 -0.022,-0.16 -0.024,-0.249 -0.059,-0.593 -0.077,-0.7 L 238,308 l -0.157,0.272 -0.389,0.681 -0.4,0.735 -0.138,0.26 h -0.077 l -0.128,-0.255 -0.422,-0.764 -0.351,-0.633 -0.151,-0.264 -0.035,0.251 -0.086,0.661 -0.059,0.589 -0.018,0.253 v 0.171 l -0.153,-0.01 -0.165,0.01 z"
         transform="translate(-216.036,-306.448)"
         fill="#1d1d1b"
         style="fill:#ffffff" />
      <path
         id="Caminho_159"
         data-name="Caminho 159"
         d="m 260.727,309.584 0.008,-0.3 0.006,-0.317 v -0.648 -0.388 -0.408 q 0,-0.167 -0.012,-0.258 l -0.016,-0.116 0.147,0.019 c 0.09,0.008 0.235,0.012 0.436,0.011 h 0.44 q 0.11,0 0.485,-0.03 l -0.01,0.123 0.01,0.131 -0.165,-0.014 -0.326,-0.013 h -0.283 -0.241 -0.079 q -0.016,0.35 -0.018,0.525 v 0.444 h 0.287 0.275 c 0.121,0 0.219,-0.005 0.3,-0.013 l 0.142,-0.013 -0.01,0.127 0.01,0.127 -0.1,-0.009 -0.234,-0.01 -0.342,-0.008 h -0.324 l -0.01,0.541 0.01,0.554 h 0.086 0.3 l 0.326,-0.01 0.261,-0.013 0.136,-0.008 -0.01,0.145 0.01,0.11 -0.067,-0.006 q -0.306,-0.024 -0.827,-0.024 h -0.194 q -0.143,0.006 -0.424,0.031 z"
         transform="translate(-236.157,-306.334)"
         fill="#1d1d1b"
         style="fill:#ffffff" />
      <path
         id="Caminho_160"
         data-name="Caminho 160"
         d="m 272.516,307.339 -0.053,0.154 -0.049,0.006 -0.059,-0.084 a 0.577,0.577 0 0 0 -0.467,-0.216 0.565,0.565 0 0 0 -0.358,0.123 0.388,0.388 0 0 0 -0.142,0.326 0.454,0.454 0 0 0 0.055,0.231 0.443,0.443 0 0 0 0.159,0.158 1.358,1.358 0 0 0 0.236,0.114 l 0.369,0.133 a 0.874,0.874 0 0 1 0.3,0.177 0.6,0.6 0 0 1 0.145,0.22 0.736,0.736 0 0 1 0.043,0.249 0.77,0.77 0 0 1 -0.057,0.3 0.875,0.875 0 0 1 -0.526,0.5 1.122,1.122 0 0 1 -0.42,0.07 1.1,1.1 0 0 1 -0.4,-0.069 0.7,0.7 0 0 1 -0.2,-0.112 l -0.069,-0.055 0.043,-0.143 0.02,-0.135 0.055,-0.01 a 0.821,0.821 0 0 0 0.646,0.352 0.542,0.542 0 0 0 0.538,-0.311 0.554,0.554 0 0 0 0.049,-0.237 0.455,0.455 0 0 0 -0.036,-0.19 0.515,0.515 0 0 0 -0.135,-0.165 1.28,1.28 0 0 0 -0.269,-0.15 l -0.351,-0.135 a 0.965,0.965 0 0 1 -0.271,-0.148 0.588,0.588 0 0 1 -0.177,-0.236 0.735,0.735 0 0 1 -0.063,-0.3 0.656,0.656 0 0 1 0.147,-0.427 0.775,0.775 0 0 1 0.4,-0.256 1.2,1.2 0 0 1 0.9,0.116 l 0.049,0.033 z"
         transform="translate(-244.309,-306.239)"
         fill="#1d1d1b"
         style="fill:#ffffff" />
      <path
         id="Caminho_161"
         data-name="Caminho 161"
         d="m 281.31,307.28 -0.01,-0.133 0.194,0.006 0.418,0.015 0.473,0.01 q 0.337,0 0.508,-0.007 l 0.343,-0.016 0.2,-0.007 -0.01,0.131 0.01,0.124 -0.094,-0.01 q -0.122,-0.011 -0.318,-0.017 h -0.363 -0.079 v 0.078 q -0.01,0.171 -0.008,0.511 v 1.047 l 0.006,0.369 0.006,0.171 0.01,0.163 0.01,0.133 -0.19,-0.01 -0.232,0.01 0.012,-0.126 0.01,-0.167 0.006,-0.177 v -0.365 -0.378 -0.68 q 0,-0.295 -0.014,-0.486 l -0.006,-0.1 h -0.084 l -0.334,0.008 -0.332,0.013 -0.145,0.01 z"
         transform="translate(-252.439,-306.334)"
         fill="#1d1d1b"
         style="fill:#ffffff" />
      <path
         id="Caminho_162"
         data-name="Caminho 162"
         d="m 293.09,306.629 0.2,-0.374 q 0.19,-0.372 0.312,-0.631 l 0.353,-0.747 0.186,-0.393 0.175,-0.382 h 0.1 l 0.169,0.374 0.177,0.38 0.357,0.771 q 0.222,0.492 0.3,0.64 l 0.182,0.349 0.081,0.152 -0.222,-0.01 -0.23,0.01 -0.065,-0.152 -0.141,-0.344 -0.163,-0.361 -0.069,-0.151 -0.192,-0.019 c -0.1,-0.007 -0.216,-0.01 -0.357,-0.012 -0.109,0 -0.2,0 -0.267,0.008 l -0.222,0.023 -0.063,0.139 -0.153,0.353 q -0.1,0.24 -0.151,0.377 l -0.049,0.139 -0.151,-0.01 -0.169,0.01 z m 0.776,-1.117 0.108,0.012 c 0.106,0.01 0.212,0.015 0.318,0.015 a 2.373,2.373 0 0 0 0.241,-0.011 l 0.128,-0.017 -0.047,-0.118 c -0.037,-0.086 -0.118,-0.261 -0.243,-0.525 l -0.1,-0.214 -0.1,0.216 -0.237,0.5 z m 0.473,-1.961 c 0.037,-0.063 0.087,-0.161 0.151,-0.292 a 1.367,1.367 0 0 0 0.234,0.023 1.216,1.216 0 0 0 0.218,-0.023 l 0.023,0.053 a 8.472,8.472 0 0 0 -0.679,0.564 h -0.148 q 0.139,-0.212 0.202,-0.325 z"
         transform="translate(-261.7,-303.259)"
         fill="#1d1d1b"
         style="fill:#ffffff" />
      <path
         id="Caminho_163"
         data-name="Caminho 163"
         d="m 315.593,307.339 -0.053,0.154 -0.049,0.006 -0.059,-0.084 a 0.577,0.577 0 0 0 -0.467,-0.216 0.565,0.565 0 0 0 -0.358,0.123 0.388,0.388 0 0 0 -0.142,0.326 0.454,0.454 0 0 0 0.055,0.231 0.444,0.444 0 0 0 0.159,0.158 1.365,1.365 0 0 0 0.236,0.114 l 0.369,0.133 a 0.879,0.879 0 0 1 0.3,0.177 0.6,0.6 0 0 1 0.145,0.22 0.739,0.739 0 0 1 0.043,0.249 0.77,0.77 0 0 1 -0.057,0.3 0.874,0.874 0 0 1 -0.526,0.5 1.121,1.121 0 0 1 -0.42,0.07 1.1,1.1 0 0 1 -0.4,-0.069 0.7,0.7 0 0 1 -0.2,-0.112 l -0.069,-0.055 0.043,-0.143 0.02,-0.135 0.055,-0.01 a 0.821,0.821 0 0 0 0.646,0.352 0.542,0.542 0 0 0 0.538,-0.311 0.557,0.557 0 0 0 0.049,-0.237 0.451,0.451 0 0 0 -0.036,-0.19 0.515,0.515 0 0 0 -0.135,-0.165 1.285,1.285 0 0 0 -0.269,-0.15 l -0.351,-0.135 a 0.964,0.964 0 0 1 -0.271,-0.148 0.592,0.592 0 0 1 -0.177,-0.236 0.735,0.735 0 0 1 -0.063,-0.3 0.657,0.657 0 0 1 0.147,-0.427 0.775,0.775 0 0 1 0.4,-0.256 1.2,1.2 0 0 1 0.9,0.116 l 0.049,0.033 z"
         transform="translate(-278.375,-306.239)"
         fill="#1d1d1b"
         style="fill:#ffffff" />
      <path
         id="Caminho_164"
         data-name="Caminho 164"
         d="m 325.358,309.584 0.008,-0.3 0.006,-0.317 v -0.648 -0.388 -0.408 c 0,-0.112 -0.005,-0.2 -0.012,-0.258 l -0.016,-0.116 0.147,0.019 c 0.09,0.008 0.235,0.012 0.436,0.011 h 0.44 q 0.11,0 0.485,-0.03 l -0.01,0.123 0.01,0.131 -0.165,-0.014 -0.326,-0.013 h -0.283 -0.241 -0.08 q -0.016,0.35 -0.018,0.525 v 0.444 h 0.288 0.275 c 0.121,0 0.22,-0.005 0.3,-0.013 l 0.143,-0.013 -0.01,0.127 0.01,0.127 -0.1,-0.009 -0.234,-0.01 -0.342,-0.008 h -0.324 l -0.01,0.541 0.01,0.554 h 0.086 0.3 l 0.326,-0.01 0.261,-0.013 0.137,-0.008 -0.01,0.145 0.01,0.11 -0.067,-0.006 q -0.306,-0.024 -0.828,-0.024 h -0.194 q -0.143,0.006 -0.424,0.031 z"
         transform="translate(-287.268,-306.334)"
         fill="#1d1d1b"
         style="fill:#ffffff" />
      <path
         id="Caminho_165"
         data-name="Caminho 165"
         d="m 338.335,309.331 c 0.008,-0.1 0.013,-0.209 0.014,-0.323 l -0.022,-0.344 -0.011,-0.148 0.218,0.01 0.2,-0.01 -0.016,0.163 -0.012,0.315 v 0.317 l 0.012,0.185 0.021,0.146 -0.182,0.042 a 4.2,4.2 0 0 1 -0.477,0.088 3.306,3.306 0 0 1 -0.44,0.024 1.768,1.768 0 0 1 -1.149,-0.329 1.257,1.257 0 0 1 -0.451,-1.03 1.3,1.3 0 0 1 0.459,-1.055 1.794,1.794 0 0 1 1.174,-0.355 2.566,2.566 0 0 1 0.532,0.052 2.252,2.252 0 0 1 0.418,0.134 l 0.125,0.059 -0.061,0.139 -0.047,0.15 -0.049,0.017 -0.118,-0.1 a 1.366,1.366 0 0 0 -0.829,-0.281 1.289,1.289 0 0 0 -0.42,0.07 1.116,1.116 0 0 0 -0.379,0.211 0.983,0.983 0 0 0 -0.263,0.361 1.384,1.384 0 0 0 -0.114,0.568 1.363,1.363 0 0 0 0.171,0.7 0.932,0.932 0 0 0 0.567,0.46 1.633,1.633 0 0 0 0.487,0.061 1.527,1.527 0 0 0 0.508,-0.076 l 0.118,-0.043 z"
         transform="translate(-295.728,-306.24)"
         fill="#1d1d1b"
         style="fill:#ffffff" />
      <path
         id="Caminho_166"
         data-name="Caminho 166"
         d="m 352.99,307.255 0.2,-0.01 -0.014,0.137 -0.01,0.175 -0.008,0.331 v 0.993 q 0.034,0.886 0.874,0.881 a 0.761,0.761 0 0 0 0.834,-0.53 3,3 0 0 0 0.073,-0.733 v -0.6 l -0.012,-0.354 -0.01,-0.169 -0.008,-0.135 0.15,0.01 0.141,-0.01 -0.008,0.139 -0.008,0.177 -0.008,0.351 -0.008,0.593 -0.006,0.355 a 1,1 0 0 1 -0.785,1.057 1.873,1.873 0 0 1 -0.44,0.051 1.706,1.706 0 0 1 -0.412,-0.045 1,1 0 0 1 -0.41,-0.194 0.767,0.767 0 0 1 -0.259,-0.352 1.419,1.419 0 0 1 -0.065,-0.47 l 0.012,-0.4 -0.008,-0.623 v -0.331 l -0.006,-0.171 -0.016,-0.133 z"
         transform="translate(-308.959,-306.411)"
         fill="#1d1d1b"
         style="fill:#ffffff" />
      <path
         id="Caminho_167"
         data-name="Caminho 167"
         d="m 369.149,309.8 0.01,-0.31 0.008,-0.612 0.006,-0.807 v -0.42 l -0.018,-0.255 -0.012,-0.147 h 0.149 l 0.3,0.006 0.546,-0.01 a 1.063,1.063 0 0 1 0.573,0.126 0.548,0.548 0 0 1 0.259,0.479 0.626,0.626 0 0 1 -0.2,0.469 0.837,0.837 0 0 1 -0.255,0.165 1.008,1.008 0 0 1 -0.235,0.072 l -0.161,0.024 0.2,0.251 0.349,0.412 q 0.271,0.319 0.462,0.52 l 0.149,0.158 -0.277,-0.01 -0.257,0.01 -0.1,-0.133 q -0.359,-0.464 -0.764,-0.927 l -0.21,-0.24 h -0.143 v 0.251 0.618 l 0.018,0.3 0.008,0.135 -0.21,-0.01 -0.212,0.01 z m 0.381,-1.366 h 0.128 a 1.814,1.814 0 0 0 0.33,-0.03 0.959,0.959 0 0 0 0.324,-0.113 0.449,0.449 0 0 0 0.179,-0.19 0.423,0.423 0 0 0 0.051,-0.2 q 0,-0.437 -0.689,-0.447 l -0.186,0.006 h -0.127 z"
         transform="translate(-321.905,-306.411)"
         fill="#1d1d1b"
         style="fill:#ffffff" />
      <path
         id="Caminho_168"
         data-name="Caminho 168"
         d="m 381.527,307.651 a 1.439,1.439 0 0 1 0.677,-0.516 1.8,1.8 0 0 1 0.644,-0.107 1.7,1.7 0 0 1 1.1,0.354 1.228,1.228 0 0 1 0.448,0.993 1.34,1.34 0 0 1 -0.7,1.207 1.718,1.718 0 0 1 -0.88,0.215 1.907,1.907 0 0 1 -0.63,-0.1 1.319,1.319 0 0 1 -0.477,-0.275 1.251,1.251 0 0 1 -0.42,-0.988 1.3,1.3 0 0 1 0.238,-0.783 z m 0.189,0.783 a 1.38,1.38 0 0 0 0.092,0.523 0.973,0.973 0 0 0 0.242,0.365 1.02,1.02 0 0 0 0.34,0.229 1.145,1.145 0 0 0 0.441,0.075 1.159,1.159 0 0 0 0.459,-0.082 1,1 0 0 0 0.358,-0.255 1.076,1.076 0 0 0 0.241,-0.388 1.636,1.636 0 0 0 0.084,-0.519 1.585,1.585 0 0 0 -0.088,-0.528 0.936,0.936 0 0 0 -0.569,-0.574 1.341,1.341 0 0 0 -0.942,0.008 0.99,0.99 0 0 0 -0.514,0.477 1.457,1.457 0 0 0 -0.143,0.669 z"
         transform="translate(-331.513,-306.24)"
         fill="#1d1d1b"
         style="fill:#ffffff" />
    </g>
    <path
       id="Caminho_169"
       data-name="Caminho 169"
       d="m 186.783,115.57 h -31.145 c -0.23,0 -0.249,0.147 -0.164,0.285 l 0.293,0.379 a 0.285,0.285 0 0 0 0.281,0.171 h 29.057 l -2.61,2.609 h -24.17 c -0.23,0 -0.249,0.147 -0.164,0.285 l 0.3,0.379 a 0.285,0.285 0 0 0 0.281,0.171 h 22.923 l -2.6,2.6 H 161 c -0.23,0 -0.249,0.147 -0.164,0.285 l 0.3,0.38 a 0.286,0.286 0 0 0 0.281,0.171 h 16.813 l -2.6,2.6 h -11.944 c -0.23,0 -0.249,0.147 -0.164,0.285 l 0.294,0.379 a 0.285,0.285 0 0 0 0.281,0.171 h 10.7 l -2.6,2.6 h -5.833 c -0.23,0 -0.249,0.147 -0.164,0.285 l 0.3,0.379 a 0.286,0.286 0 0 0 0.281,0.171 h 4.584 c 0,0 -1.991,1.984 -2.178,2.165 a 10.623,10.623 0 0 0 -4.3,-0.02 c -0.018,0 -0.056,0.019 -0.027,0.06 0.6,0.8 1.936,2.592 2.33,3.112 a 0.04,0.04 0 0 0 0.052,0.009 c 1.432,-1.418 19.662,-19.68 19.662,-19.68 0.11,-0.123 0.065,-0.231 -0.121,-0.231 z"
       transform="translate(-152.182,-109.46)"
       fill="#0069b3" />
    <path
       id="Ret창ngulo_449"
       data-name="Ret창ngulo 449"
       d="M 0.269,0 H 53.832 A 0.269,0.269 0 0 1 54.1,0.269 V 0.817 A 0.267,0.267 0 0 1 53.833,1.084 H 0.267 A 0.267,0.267 0 0 1 0,0.817 V 0.269 A 0.269,0.269 0 0 1 0.269,0 Z"
       transform="translate(0.092,32.485)"
       fill="#0069b3" />
    <path
       id="Ret창ngulo_450"
       data-name="Ret창ngulo 450"
       d="M 0.267,0 H 53.834 A 0.267,0.267 0 0 1 54.1,0.267 V 0.814 A 0.271,0.271 0 0 1 53.829,1.085 H 0.269 A 0.269,0.269 0 0 1 0,0.816 V 0.267 A 0.267,0.267 0 0 1 0.267,0 Z"
       transform="translate(0.092,43.143)"
       fill="#0069b3" />
    <path
       id="Caminho_170"
       data-name="Caminho 170"
       d="m 146.607,255.815 2.186,0.586 a 0.05,0.05 0 0 1 0.035,0.067 4.259,4.259 0 0 1 -0.71,1.381 3.368,3.368 0 0 1 -1.237,0.869 5.146,5.146 0 0 1 -1.88,0.293 6.079,6.079 0 0 1 -2.263,-0.357 3.464,3.464 0 0 1 -1.515,-1.256 3.886,3.886 0 0 1 -0.637,-2.3 3.658,3.658 0 0 1 1.121,-2.874 4.6,4.6 0 0 1 3.172,-1 4.733,4.733 0 0 1 2.524,0.576 3.384,3.384 0 0 1 1.34,1.7 c 0.008,0.021 0.025,0.064 -0.038,0.077 l -2.2,0.434 a 0.072,0.072 0 0 1 -0.077,-0.041 1.641,1.641 0 0 0 -0.233,-0.452 1.473,1.473 0 0 0 -0.539,-0.411 1.7,1.7 0 0 0 -0.713,-0.145 1.6,1.6 0 0 0 -1.367,0.637 2.457,2.457 0 0 0 -0.359,1.483 2.571,2.571 0 0 0 0.429,1.717 1.852,1.852 0 0 0 2.344,0.09 2.178,2.178 0 0 0 0.546,-1.039 c 0.005,-0.058 0.071,-0.035 0.071,-0.035 z"
       transform="translate(-140.444,-216.733)"
       fill="#0069b3"
       fill-rule="evenodd" />
    <path
       id="Caminho_171"
       data-name="Caminho 171"
       d="m 184.6,255.12 a 3.64,3.64 0 0 1 1.159,-2.873 4.7,4.7 0 0 1 3.227,-1.028 4.791,4.791 0 0 1 3.268,1.01 3.571,3.571 0 0 1 1.147,2.829 4.2,4.2 0 0 1 -0.5,2.167 3.386,3.386 0 0 1 -1.449,1.316 5.287,5.287 0 0 1 -2.361,0.47 6.039,6.039 0 0 1 -2.379,-0.406 3.443,3.443 0 0 1 -1.527,-1.285 3.884,3.884 0 0 1 -0.585,-2.2 z m 2.625,0.01 a 2.321,2.321 0 0 0 0.478,1.64 1.973,1.973 0 0 0 2.61,0.01 2.551,2.551 0 0 0 0.464,-1.753 2.146,2.146 0 0 0 -0.484,-1.555 1.761,1.761 0 0 0 -1.312,-0.49 1.69,1.69 0 0 0 -1.275,0.5 2.329,2.329 0 0 0 -0.481,1.648 z"
       transform="translate(-175.253,-216.733)"
       fill="#0069b3"
       fill-rule="evenodd" />
    <path
       id="Caminho_172"
       data-name="Caminho 172"
       d="m 233.658,259.368 a 0.056,0.056 0 0 1 -0.056,-0.056 v -7.422 a 0.056,0.056 0 0 1 0.056,-0.056 h 4.262 0.113 a 13.318,13.318 0 0 1 1.8,0.182 1.98,1.98 0 0 1 1.037,0.686 2.09,2.09 0 0 1 0.093,2.3 2.239,2.239 0 0 1 -0.829,0.738 3.439,3.439 0 0 1 -0.922,0.3 2.463,2.463 0 0 1 1.5,1.191 c 0.183,0.325 1.215,2.086 1.215,2.086 0.015,0.027 0,0.048 -0.028,0.048 h -2.853 a 0.112,0.112 0 0 1 -0.086,-0.048 c 0,0 -1,-1.688 -1.345,-2.206 a 1.608,1.608 0 0 0 -1.323,-0.8 0.057,0.057 0 0 0 -0.056,0.056 v 2.945 a 0.056,0.056 0 0 1 -0.056,0.056 z m 2.58,-4.538 a 0.057,0.057 0 0 0 0.056,0.056 h 1.232 c 0.283,0 1.1,-0.05 1.1,-0.776 0,-0.726 -0.761,-0.756 -1.24,-0.756 h -1.1 a 0.057,0.057 0 0 0 -0.056,0.056 z"
       transform="translate(-214.004,-217.22)"
       fill="#0069b3"
       fill-rule="evenodd" />
    <path
       id="Caminho_173"
       data-name="Caminho 173"
       d="m 277.509,251.89 a 0.056,0.056 0 0 1 0.056,-0.056 h 3.992 a 3.725,3.725 0 0 1 2.45,0.6 2.118,2.118 0 0 1 0.71,1.711 2.192,2.192 0 0 1 -0.773,1.783 3.642,3.642 0 0 1 -2.361,0.643 H 280.2 a 0.056,0.056 0 0 0 -0.056,0.056 v 2.684 a 0.056,0.056 0 0 1 -0.056,0.056 h -2.524 a 0.056,0.056 0 0 1 -0.056,-0.056 z m 2.636,3.1 a 0.057,0.057 0 0 0 0.056,0.057 h 0.531 c 0.031,0 0.082,0 0.112,-0.005 a 3.272,3.272 0 0 0 1.01,-0.228 0.721,0.721 0 0 0 0.307,-0.6 0.788,0.788 0 0 0 -0.267,-0.6 1.505,1.505 0 0 0 -1,-0.247 H 280.2 a 0.057,0.057 0 0 0 -0.056,0.057 z"
       transform="translate(-248.727,-217.22)"
       fill="#0069b3"
       fill-rule="evenodd" />
    <path
       id="Caminho_174"
       data-name="Caminho 174"
       d="m 314.634,251.886 a 0.034,0.034 0 0 1 0.034,-0.052 h 2.632 a 0.085,0.085 0 0 1 0.075,0.053 l 1.875,5.316 c 0.01,0.029 0.027,0.029 0.037,0 l 1.85,-5.316 a 0.086,0.086 0 0 1 0.075,-0.053 h 2.552 a 0.035,0.035 0 0 1 0.034,0.052 l -3.111,7.43 a 0.091,0.091 0 0 1 -0.078,0.052 h -2.733 a 0.092,0.092 0 0 1 -0.078,-0.052 z"
       transform="translate(-278.083,-217.22)"
       fill="#0069b3"
       fill-rule="evenodd" />
    <path
       id="Caminho_175"
       data-name="Caminho 175"
       d="m 360.549,256.386 c 0.05,0 2.379,-0.132 2.379,-0.132 a 0.071,0.071 0 0 1 0.07,0.052 2.691,2.691 0 0 0 0.316,0.768 1.468,1.468 0 0 0 1.159,0.457 1.394,1.394 0 0 0 0.866,-0.234 0.674,0.674 0 0 0 0.3,-0.542 0.667,0.667 0 0 0 -0.29,-0.524 3.632,3.632 0 0 0 -1.345,-0.437 6.1,6.1 0 0 1 -2.462,-0.915 1.76,1.76 0 0 1 -0.741,-1.455 1.817,1.817 0 0 1 0.379,-1.1 2.481,2.481 0 0 1 1.141,-0.812 5.945,5.945 0 0 1 2.089,-0.3 4.7,4.7 0 0 1 2.483,0.537 2.174,2.174 0 0 1 1,1.621 0.069,0.069 0 0 1 -0.051,0.092 c -0.042,0.008 -2.351,0.122 -2.351,0.122 a 0.08,0.08 0 0 1 -0.075,-0.05 1.071,1.071 0 0 0 -0.4,-0.687 1.538,1.538 0 0 0 -0.872,-0.231 1.148,1.148 0 0 0 -0.69,0.172 0.509,0.509 0 0 0 -0.232,0.419 0.407,0.407 0 0 0 0.191,0.324 2.327,2.327 0 0 0 0.881,0.278 12.079,12.079 0 0 1 2.466,0.665 2.524,2.524 0 0 1 1.083,0.835 1.938,1.938 0 0 1 0.339,1.115 2.2,2.2 0 0 1 -0.452,1.336 2.773,2.773 0 0 1 -1.263,0.928 5.683,5.683 0 0 1 -2.046,0.316 4.592,4.592 0 0 1 -3,-0.74 2.839,2.839 0 0 1 -0.939,-1.814 c 0.005,-0.037 0.018,-0.059 0.067,-0.064 z"
       transform="translate(-314.351,-216.733)"
       fill="#0069b3"
       fill-rule="evenodd" />
    <path
       id="Caminho_176"
       data-name="Caminho 176"
       d="m 245.5,102.741 a 17.32,17.32 0 0 0 -17.341,-16.382 16.226,16.226 0 0 0 -12.235,5.415 c -0.013,0.015 -0.018,0.046 0.024,0.046 h 20.315 c 0.161,0.018 0.074,0.13 0.074,0.13 l -20.15,20.206 a 0.05,0.05 0 0 0 -0.009,0.071 c 0.031,0.038 0.835,0.821 0.86,0.852 0.025,0.031 0.068,0 0.068,0 0,0 12.346,-12.4 12.4,-12.443 0.054,-0.043 0.074,0 0.054,0.044 -0.02,0.044 -6.595,13.329 -6.595,13.329 l -2.525,2.444 c 0,0 -0.036,0.045 0,0.067 a 13.556,13.556 0 0 0 4.134,1.915 h 9.519 A 15.708,15.708 0 0 0 245.5,102.741 Z"
       transform="translate(-200.014,-86.359)"
       fill="#e20613"
       fill-rule="evenodd" />
    <path
       id="Caminho_177"
       data-name="Caminho 177"
       d="m 271.865,158.482 c -3.513,3 -7.26,5.949 -11.117,8.881 -0.048,0.036 -0.079,0.008 -0.046,-0.042 1.01,-1.554 2.133,-3.109 3.332,-4.662 0.018,-0.038 0.006,-0.039 -0.019,-0.038 -0.594,0.008 -1.186,0.011 -1.782,0.019 -0.062,0 -0.05,-0.039 -0.031,-0.056 l 2.468,-2.236 c 0.028,-0.024 0,-0.046 -0.022,-0.048 -0.392,-0.029 -0.78,-0.051 -1.173,-0.081 -0.05,-0.008 -0.032,-0.045 -0.016,-0.059 a 17.95,17.95 0 0 1 2.857,-2.265 0.039,0.039 0 0 0 0,-0.06 5.8,5.8 0 0 1 -0.91,-1.8 c -0.017,-0.067 0.02,-0.057 0.039,-0.056 0.752,0.044 1.19,0.126 1.7,0.194 0.063,0.013 0.033,-0.018 0.025,-0.031 a 12.726,12.726 0 0 1 -1.05,-2.016 c -0.011,-0.033 0.019,-0.041 0.037,-0.037 a 11.974,11.974 0 0 1 1.433,0.454 c 0.041,0.022 0.035,-0.01 0.032,-0.021 a 11.422,11.422 0 0 1 -0.264,-1.193 c -0.014,-0.043 0.023,-0.038 0.038,-0.037 a 26.5,26.5 0 0 1 6.254,0.758 c 1.145,0.305 1.6,0.726 0.707,1.421 l -2.458,1.849 a 1.064,1.064 0 0 0 -0.034,1.162 z"
       transform="translate(-235.424,-139.288)"
       fill="#ffffff"
       fill-rule="evenodd" />
    <path
       id="Caminho_178"
       data-name="Caminho 178"
       d="m 320.963,166.094 c -0.2,-0.088 -1.209,-0.443 -1.356,-0.488 a 0.886,0.886 0 0 0 -0.747,0.06 c -0.636,0.315 -1.556,0.872 -2.192,1.187 -0.016,0.008 -0.049,0.022 -0.068,0 a 0.421,0.421 0 0 1 0.057,-0.628 c 0.647,-0.529 1.4,-1.167 2.052,-1.7 a 0.954,0.954 0 0 1 1.371,0 c 0.458,0.3 1.068,0.7 1.527,1 0.608,0.403 0.123,0.882 -0.644,0.569 z"
       transform="translate(-279.55,-147.948)"
       fill="#ffffff"
       fill-rule="evenodd" />
    <path
       id="Caminho_179"
       data-name="Caminho 179"
       d="m 220.614,179.734 c 0,0 10.378,-10.4 10.427,-10.453 0.049,-0.053 0.034,0.016 0.034,0.016 l -5.035,9.959 -2.9,2.767 c 0,0 -0.038,0.043 -0.083,-0.01 -0.321,-0.306 -2.389,-2.17 -2.434,-2.205 a 0.044,0.044 0 0 1 -0.009,-0.074 z"
       transform="translate(-203.72,-151.918)"
       fill="#0069b3"
       fill-rule="evenodd" />
    <path
       id="Caminho_180"
       data-name="Caminho 180"
       d="m 167.264,143.968 a 0.061,0.061 0 0 1 -0.053,-0.037 l -0.278,-0.738 c -0.025,-0.068 -0.063,-0.067 -0.084,0 l -0.215,0.734 a 0.057,0.057 0 0 1 -0.051,0.038 h -0.8 c -0.073,0 -0.083,0.034 -0.023,0.075 l 0.669,0.459 a 0.058,0.058 0 0 1 0.021,0.06 l -0.223,0.734 c -0.021,0.07 0.01,0.092 0.069,0.049 l 0.633,-0.455 a 0.06,0.06 0 0 1 0.065,0 l 0.662,0.458 c 0.06,0.041 0.088,0.019 0.063,-0.049 l -0.269,-0.738 a 0.055,0.055 0 0 1 0.018,-0.06 l 0.622,-0.455 c 0.059,-0.043 0.047,-0.078 -0.026,-0.078 z"
       transform="translate(-160.319,-131.264)"
       fill="#0069b3" />
    <path
       id="Caminho_181"
       data-name="Caminho 181"
       d="m 154.208,127.354 a 0.061,0.061 0 0 1 -0.053,-0.037 l -0.278,-0.738 c -0.025,-0.068 -0.063,-0.067 -0.084,0 l -0.215,0.734 a 0.057,0.057 0 0 1 -0.051,0.038 h -0.8 c -0.073,0 -0.083,0.034 -0.023,0.075 l 0.669,0.459 a 0.058,0.058 0 0 1 0.021,0.061 l -0.223,0.733 c -0.021,0.07 0.011,0.092 0.069,0.049 l 0.633,-0.455 a 0.061,0.061 0 0 1 0.065,0 l 0.662,0.459 c 0.06,0.041 0.088,0.019 0.063,-0.049 l -0.269,-0.738 a 0.055,0.055 0 0 1 0.018,-0.06 l 0.622,-0.455 c 0.059,-0.043 0.048,-0.078 -0.025,-0.078 z"
       transform="translate(-149.994,-118.126)"
       fill="#0069b3" />
    <path
       id="Caminho_182"
       data-name="Caminho 182"
       d="m 141.462,110.983 a 0.062,0.062 0 0 1 -0.053,-0.037 l -0.278,-0.738 c -0.025,-0.068 -0.063,-0.067 -0.084,0 l -0.215,0.734 a 0.057,0.057 0 0 1 -0.051,0.038 h -0.8 c -0.073,0 -0.083,0.034 -0.023,0.075 l 0.669,0.459 a 0.058,0.058 0 0 1 0.021,0.06 l -0.223,0.734 c -0.021,0.07 0.01,0.092 0.069,0.049 l 0.633,-0.455 a 0.06,0.06 0 0 1 0.065,0 l 0.662,0.458 c 0.06,0.041 0.088,0.019 0.063,-0.049 l -0.269,-0.738 a 0.055,0.055 0 0 1 0.018,-0.06 l 0.622,-0.455 c 0.059,-0.043 0.048,-0.078 -0.025,-0.078 z"
       transform="translate(-139.914,-105.18)"
       fill="#0069b3" />
    <path
       id="Caminho_183"
       data-name="Caminho 183"
       d="m 179.928,160.082 a 0.061,0.061 0 0 1 -0.053,-0.037 l -0.278,-0.738 c -0.025,-0.068 -0.063,-0.067 -0.084,0 l -0.215,0.734 a 0.056,0.056 0 0 1 -0.051,0.038 h -0.8 c -0.073,0 -0.083,0.034 -0.023,0.075 l 0.669,0.459 a 0.058,0.058 0 0 1 0.021,0.061 l -0.223,0.733 c -0.021,0.07 0.01,0.092 0.069,0.049 l 0.633,-0.455 a 0.061,0.061 0 0 1 0.065,0 l 0.662,0.459 c 0.06,0.041 0.088,0.019 0.063,-0.049 l -0.269,-0.738 a 0.055,0.055 0 0 1 0.018,-0.06 l 0.622,-0.455 c 0.059,-0.043 0.047,-0.078 -0.026,-0.078 z"
       transform="translate(-170.334,-144.008)"
       fill="#0069b3" />
    <path
       id="Caminho_184"
       data-name="Caminho 184"
       d="m 193.36,178.126 -0.269,-0.738 a 0.055,0.055 0 0 1 0.018,-0.06 l 0.622,-0.455 c 0.059,-0.043 0.048,-0.078 -0.025,-0.078 h -0.8 a 0.062,0.062 0 0 1 -0.053,-0.037 l -0.278,-0.738 c -0.025,-0.068 -0.063,-0.067 -0.084,0 l -0.215,0.734 a 0.057,0.057 0 0 1 -0.051,0.038 h -0.8 c -0.073,0 -0.083,0.034 -0.023,0.075 l 0.669,0.459 a 0.058,0.058 0 0 1 0.021,0.06 l -0.223,0.734 c -0.021,0.07 0.01,0.092 0.069,0.049 l 0.633,-0.455 a 0.06,0.06 0 0 1 0.065,0 l 0.662,0.459 c 0.058,0.043 0.087,0.021 0.062,-0.047 z"
       transform="translate(-180.6,-157.225)"
       fill="#0069b3" />
    <path
       id="Caminho_185"
       data-name="Caminho 185"
       d="m 315.391,158.879 a 3.35,3.35 0 0 0 -1.367,-0.308 c -0.014,0 -0.019,0.019 -0.007,0.029 0.3,0.236 0.581,0.5 0.879,0.734 0.404,0.293 0.904,-0.193 0.495,-0.455 z"
       transform="translate(-277.593,-143.466)"
       fill="#e20613"
       fill-rule="evenodd" />
  </g>
</svg>
